<svg width="43" height="45" viewBox="0 0 43 45" fill="none" xmlns="http://www.w3.org/2000/svg">
<path d="M42.5 32.5C42.5 33.8261 41.9732 35.0979 41.0355 36.0355C40.0979 36.9732 38.8261 37.5 37.5 37.5H5C3.67392 37.5 2.40215 36.9732 1.46447 36.0355C0.526784 35.0979 0 33.8261 0 32.5V7.89125C0 5.13 7.23875 0 10 0H35.7812C39.6488 0 42.5 2.89125 42.5 6.71875V32.5Z" fill="#576F72"/>
<path d="M40 37.5C40 38.8261 39.4732 40.0979 38.5355 41.0355C37.5979 41.9732 36.3261 42.5 35 42.5H7.5C6.17392 42.5 4.90215 41.9732 3.96447 41.0355C3.02679 40.0979 2.5 38.8261 2.5 37.5V7.5C2.5 2.35125 2.47375 2.5 8.75 2.5H35C36.3261 2.5 37.5979 3.02679 38.5355 3.96447C39.4732 4.90215 40 6.17392 40 7.5V37.5Z" fill="#CCD6DD"/>
<path d="M37.5 38.75C37.5 39.7446 37.1049 40.6984 36.4017 41.4017C35.6984 42.1049 34.7446 42.5 33.75 42.5H3.75C2.75544 42.5 1.80161 42.1049 1.09835 41.4017C0.395088 40.6984 0 39.7446 0 38.75V8.75C0 7.75544 0.395088 6.80161 1.09835 6.09835C1.80161 5.39509 2.75544 5 3.75 5H33.75C34.7446 5 35.6984 5.39509 36.4017 6.09835C37.1049 6.80161 37.5 7.75544 37.5 8.75V38.75Z" fill="#E1E8ED"/>
<path d="M37.5 40C37.5 41.3261 36.9732 42.5979 36.0355 43.5355C35.0979 44.4732 33.8261 45 32.5 45H6.25C4.92392 45 3.65215 44.4732 2.71447 43.5355C1.77678 42.5979 1.25 41.3261 1.25 40V12.5C1.25 11.1739 1.77678 9.90215 2.71447 8.96447C3.65215 8.02679 4.92392 7.5 6.25 7.5H32.5C33.8261 7.5 35.0979 8.02679 36.0355 8.96447C36.9732 9.90215 37.5 11.1739 37.5 12.5V40Z" fill="#7D9D9C"/>
<path d="M35 40C35 41.3261 34.4732 42.5979 33.5355 43.5355C32.5979 44.4732 31.3261 45 30 45H6.25C4.92392 45 3.65215 44.4732 2.71447 43.5355C1.77678 42.5979 1.25 41.3261 1.25 40V15C1.25 13.6739 1.77678 12.4021 2.71447 11.4645C3.65215 10.5268 4.92392 10 6.25 10H30.4187C33.18 10 35 11.82 35 14.5813V40Z" fill="#E4DCCF"/>
<path d="M6.25 7.5C4.14125 7.5 4.08625 5.0975 5 4.0625C6.04 2.88625 7.65625 2.5 10.5475 2.5H12.5V0H9.10125C4.14125 0 0 3.125 0 6.71875V40C0 41.3261 0.526784 42.5979 1.46447 43.5355C2.40215 44.4732 3.67392 45 5 45H7.5V7.5H6.25Z" fill="#576F72"/>
</svg>
