<svg width="20" height="20" viewBox="0 0 20 20" fill="none" xmlns="http://www.w3.org/2000/svg">
<path d="M10 0C8.02219 0 6.08879 0.58649 4.4443 1.6853C2.79981 2.78412 1.51809 4.3459 0.761209 6.17316C0.0043328 8.00043 -0.1937 10.0111 0.192152 11.9509C0.578004 13.8907 1.53041 15.6725 2.92894 17.0711C4.32746 18.4696 6.10929 19.422 8.0491 19.8078C9.98891 20.1937 11.9996 19.9957 13.8268 19.2388C15.6541 18.4819 17.2159 17.2002 18.3147 15.5557C19.4135 13.9112 20 11.9778 20 10C20 7.34783 18.9464 4.80429 17.0711 2.92893C15.1957 1.05357 12.6522 0 10 0ZM15.5071 6.93571L8.36429 14.0786C8.29789 14.1455 8.21889 14.1987 8.13184 14.2349C8.0448 14.2712 7.95144 14.2899 7.85715 14.2899C7.76285 14.2899 7.66949 14.2712 7.58245 14.2349C7.49541 14.1987 7.41641 14.1455 7.35 14.0786L3.77858 10.5071C3.71198 10.4405 3.65915 10.3615 3.6231 10.2745C3.58706 10.1874 3.56851 10.0942 3.56851 10C3.56851 9.80978 3.64407 9.62736 3.77858 9.49286C3.91308 9.35835 4.0955 9.28279 4.28572 9.28279C4.47593 9.28279 4.65836 9.35835 4.79286 9.49286L7.85715 12.5643L14.4929 5.92143C14.6274 5.78692 14.8098 5.71136 15 5.71136C15.1902 5.71136 15.3726 5.78692 15.5071 5.92143C15.6416 6.05593 15.7172 6.23836 15.7172 6.42857C15.7172 6.61879 15.6416 6.80121 15.5071 6.93571Z" fill="#F0EBE3"/>
</svg>
