<svg width="15" height="15" viewBox="0 0 15 15" fill="none" xmlns="http://www.w3.org/2000/svg">
<path d="M6.06874 7.05625C5.95105 6.93856 5.79143 6.87244 5.62499 6.87244C5.45856 6.87244 5.29893 6.93856 5.18124 7.05625C5.06355 7.17394 4.99744 7.33356 4.99744 7.5C4.99744 7.66644 5.06355 7.82606 5.18124 7.94375L7.05624 9.81875C7.11464 9.87668 7.1839 9.9225 7.26005 9.95361C7.3362 9.98471 7.41774 10.0005 7.49999 10C7.58556 9.99729 7.66965 9.97702 7.74706 9.94047C7.82446 9.90392 7.89354 9.85185 7.94999 9.7875L12.325 4.7875C12.426 4.66208 12.4747 4.50251 12.461 4.34205C12.4472 4.1816 12.372 4.03265 12.2511 3.92626C12.1302 3.81987 11.9729 3.76425 11.812 3.771C11.6511 3.77775 11.4991 3.84636 11.3875 3.9625L7.49999 8.4625L6.06874 7.05625Z" fill="#489C60"/>
<path d="M13.125 6.875C12.9592 6.875 12.8003 6.94085 12.6831 7.05806C12.5659 7.17527 12.5 7.33424 12.5 7.5C12.5 8.82608 11.9732 10.0979 11.0355 11.0355C10.0979 11.9732 8.82609 12.5 7.50001 12.5C6.51256 12.4995 5.54736 12.2067 4.72611 11.6585C3.90486 11.1102 3.26433 10.331 2.88531 9.41923C2.50628 8.50743 2.40572 7.50381 2.59631 6.53493C2.7869 5.56605 3.26011 4.6753 3.95626 3.975C4.41919 3.50586 4.97105 3.13378 5.57954 2.88051C6.18803 2.62724 6.84092 2.49788 7.50001 2.5C7.89966 2.5025 8.29785 2.54861 8.68751 2.6375C8.76905 2.66272 8.85489 2.67097 8.93974 2.66175C9.0246 2.65252 9.10666 2.62602 9.18088 2.58386C9.25509 2.54171 9.31989 2.4848 9.37127 2.41664C9.42265 2.34848 9.45952 2.27052 9.47962 2.18757C9.49972 2.10462 9.50261 2.01843 9.48812 1.93431C9.47363 1.8502 9.44207 1.76994 9.39537 1.69849C9.34868 1.62705 9.28785 1.56592 9.21662 1.51888C9.1454 1.47184 9.0653 1.43989 8.98126 1.425C8.49572 1.31078 7.99879 1.25207 7.50001 1.25C6.26522 1.25641 5.06 1.62845 4.03644 2.31916C3.01288 3.00986 2.21686 3.98829 1.74883 5.13096C1.2808 6.27362 1.16173 7.52933 1.40665 8.7396C1.65157 9.94987 2.24951 11.0605 3.12501 11.9313C4.28544 13.0922 5.85854 13.7462 7.50001 13.75C9.15761 13.75 10.7473 13.0915 11.9194 11.9194C13.0915 10.7473 13.75 9.1576 13.75 7.5C13.75 7.33424 13.6842 7.17527 13.5669 7.05806C13.4497 6.94085 13.2908 6.875 13.125 6.875Z" fill="#489C60"/>
</svg>
