<svg width="15" height="15" viewBox="0 0 15 15" fill="none" xmlns="http://www.w3.org/2000/svg">
<path d="M11.3438 5.71547L11.1563 11.3906C11.1403 11.8767 10.9356 12.3374 10.5855 12.6749C10.2354 13.0125 9.76761 13.2003 9.28131 13.1986H5.71881C5.23282 13.2003 4.76526 13.0127 4.41524 12.6756C4.06522 12.3384 3.86026 11.8782 3.84381 11.3925L3.65631 5.71547C3.65221 5.59115 3.69766 5.47029 3.78266 5.37948C3.86767 5.28867 3.98527 5.23535 4.10959 5.23125C4.23391 5.22715 4.35477 5.2726 4.44558 5.35761C4.53639 5.44261 4.58971 5.56021 4.59381 5.68453L4.78131 11.3611C4.79065 11.6034 4.89352 11.8327 5.06834 12.0008C5.24315 12.1689 5.4763 12.2627 5.71881 12.2625H9.28131C9.52413 12.2627 9.75755 12.1686 9.93241 12.0001C10.1073 11.8316 10.2099 11.6019 10.2188 11.3592L10.4063 5.68453C10.4104 5.56021 10.4637 5.44261 10.5545 5.35761C10.6453 5.2726 10.7662 5.22715 10.8905 5.23125C11.0148 5.23535 11.1324 5.28867 11.2175 5.37948C11.3025 5.47029 11.3479 5.59115 11.3438 5.71547V5.71547ZM11.964 3.82688C11.964 3.9512 11.9146 4.07042 11.8267 4.15833C11.7388 4.24624 11.6195 4.29563 11.4952 4.29563H3.50537C3.38105 4.29563 3.26182 4.24624 3.17391 4.15833C3.08601 4.07042 3.03662 3.9512 3.03662 3.82688C3.03662 3.70256 3.08601 3.58333 3.17391 3.49542C3.26182 3.40751 3.38105 3.35813 3.50537 3.35813H4.9585C5.10702 3.35853 5.25038 3.30365 5.36067 3.20419C5.47097 3.10472 5.54032 2.96777 5.55521 2.82C5.58981 2.47335 5.75221 2.152 6.01079 1.91855C6.26937 1.6851 6.6056 1.55628 6.95397 1.55719H8.04615C8.39452 1.55628 8.73075 1.6851 8.98933 1.91855C9.2479 2.152 9.41031 2.47335 9.4449 2.82C9.4598 2.96777 9.52915 3.10472 9.63944 3.20419C9.74974 3.30365 9.8931 3.35853 10.0416 3.35813H11.4947C11.6191 3.35813 11.7383 3.40751 11.8262 3.49542C11.9141 3.58333 11.9635 3.70256 11.9635 3.82688H11.964ZM6.36896 3.35813H8.63209C8.57049 3.21738 8.53021 3.06824 8.51256 2.91563C8.50095 2.80008 8.44686 2.69296 8.36078 2.61502C8.27469 2.53708 8.16275 2.49387 8.04662 2.49375H6.95443C6.83831 2.49387 6.72636 2.53708 6.64028 2.61502C6.5542 2.69296 6.50011 2.80008 6.4885 2.91563C6.4707 3.06827 6.43025 3.21741 6.3685 3.35813H6.36896ZM6.841 10.4602V6.46875C6.841 6.34443 6.79161 6.2252 6.7037 6.13729C6.61579 6.04939 6.49657 6 6.37225 6C6.24793 6 6.1287 6.04939 6.04079 6.13729C5.95288 6.2252 5.9035 6.34443 5.9035 6.46875V10.462C5.9035 10.5864 5.95288 10.7056 6.04079 10.7935C6.1287 10.8814 6.24793 10.9308 6.37225 10.9308C6.49657 10.9308 6.61579 10.8814 6.7037 10.7935C6.79161 10.7056 6.841 10.5864 6.841 10.462V10.4602ZM9.09756 10.4602V6.46875C9.09756 6.34443 9.04817 6.2252 8.96026 6.13729C8.87236 6.04939 8.75313 6 8.62881 6C8.50449 6 8.38526 6.04939 8.29735 6.13729C8.20944 6.2252 8.16006 6.34443 8.16006 6.46875V10.462C8.16006 10.5864 8.20944 10.7056 8.29735 10.7935C8.38526 10.8814 8.50449 10.9308 8.62881 10.9308C8.75313 10.9308 8.87236 10.8814 8.96026 10.7935C9.04817 10.7056 9.09756 10.5864 9.09756 10.462V10.4602Z" fill="#9C4848"/>
</svg>
